<svg xmlns="http://www.w3.org/2000/svg" viewBox="0 0 375 375"><defs><style>.cls-1{fill:#db3d56;}.cls-2{fill:#fff;}</style></defs><title>Asset 2</title><g id="Layer_2" data-name="Layer 2"><g id="Logo"><circle class="cls-1" cx="187.5" cy="187.5" r="187.5"/><path id="Logo-2" data-name="Logo" class="cls-2" d="M300.62,138.94c0,1.86,0,3.69-.09,5.52a154.47,154.47,0,0,0-59-39.56c-3.75-1.42-7.56-2.67-11.44-3.78a153.64,153.64,0,0,0-42.61-6q-5.56,0-11,.4a153.69,153.69,0,0,0-73.78,25,152.77,152.77,0,0,0-1.09,18.39,156.11,156.11,0,0,0,.84,16.11v0a147.42,147.42,0,0,0,3,18.17,152.84,152.84,0,0,0,21.39,50.25,154.83,154.83,0,0,0,60.68,53.75,152.28,152.28,0,0,0,22-13.3c2-1.46,4-3,5.95-4.54a154.22,154.22,0,0,0,32.7-35.91,150.5,150.5,0,0,0,12.86-24,154.87,154.87,0,0,0-25-10.82,153.09,153.09,0,0,0-43.46-7.7c-.73-2.56-1.4-5.14-2-7.74a149.32,149.32,0,0,1-3-18.17v0c0-.46-.1-.94-.13-1.4a180.91,180.91,0,0,1,82.06,19.59c1,.54,2.11,1.08,3.14,1.63,3.77,2,7.47,4.14,11.06,6.41s6.84,4.44,10.12,6.83a181.37,181.37,0,0,1-43.21,75.83c-.57.62-1.15,1.23-1.74,1.84a181.61,181.61,0,0,1-18.84,16.76c-3,2.31-6.06,4.55-9.2,6.67a178.91,178.91,0,0,1-33.39,17.87,181.24,181.24,0,0,1-61.43-41.32A180.76,180.76,0,0,1,104.46,239,174.1,174.1,0,0,1,91,214.81a177.57,177.57,0,0,1-9.86-26.7c-.54-1.92-1.05-3.84-1.51-5.79a180.86,180.86,0,0,1-5.13-37.88c-.07-1.82-.1-3.66-.1-5.5A180.6,180.6,0,0,1,77.57,105,181.75,181.75,0,0,1,227.32,72.31c.93.21,1.87.43,2.79.67a178,178,0,0,1,33.42,11.6,173.22,173.22,0,0,1,20.2,11c4.71,2.93,9.29,6.11,13.7,9.48A180.6,180.6,0,0,1,300.62,138.94Z"/></g></g></svg>